<svg width="232" height="116" viewBox="0 0 232 116" fill="none" xmlns="http://www.w3.org/2000/svg">
<path d="M135.678 115.219V61.0269H150.521C167.047 61.0269 177.21 69.5951 177.21 87.9032C177.21 106.138 167.047 115.219 151.106 115.219H135.678ZM146.5 106.504H149.79C159.954 106.504 166.169 101.085 166.169 87.9032C166.169 74.7214 159.954 69.6683 149.79 69.6683H146.5V106.504Z" fill="white"/>
<path d="M30.0604 115.219V61.0269H63.4031V70.0345H40.8822V84.2416H60.1127V93.2492H40.8822V115.219H30.0604Z" fill="white"/>
<path d="M0 54.1919V0H10.968L26.6888 28.9268L32.1728 40.6439H32.5384C31.9534 35.005 31.076 27.755 31.076 21.6035V0H41.3859V54.1919H30.3448L14.6971 25.1919L9.21312 13.6212H8.84752C9.35936 19.4066 10.2368 26.2172 10.2368 32.5152V54.1919H0Z" fill="white"/>
<path d="M91.5774 51.7183C87.2552 51.7183 85.5978 48.9843 85.5978 44.9159V36.8115H83.063V33.2638L85.8903 33.0685L86.4103 28.1213H90.375V33.0685H94.8922V36.8115H90.375V44.9159C90.375 46.9989 91.2524 47.9754 92.8448 47.9754C93.4623 47.9754 94.1447 47.7475 94.6647 47.5522L95.4447 51.0348C94.4697 51.3603 93.2023 51.7183 91.5774 51.7183Z" fill="white"/>
<path d="M65.794 51.2626L71.5136 41.7913L66.184 33.0685H71.2861L73.1385 36.2581C73.6259 37.3322 74.1784 38.3412 74.7309 39.3827H74.8934C75.3158 38.3412 75.7708 37.3322 76.2258 36.2581L77.7207 33.0685H82.6603L77.3307 42.312L83.0503 51.2626H77.9156L75.9008 47.9102C75.3158 46.8687 74.7309 45.7621 74.1134 44.7531H73.9509C73.431 45.7621 72.9435 46.8361 72.4235 47.9102L70.7661 51.2626H65.794Z" fill="white"/>
<path d="M57.6185 51.7183C52.5164 51.7183 48.5517 48.2031 48.5517 42.1818C48.5517 36.2581 52.7114 32.6128 57.0011 32.6128C62.0382 32.6128 64.6056 36.2581 64.6056 41.303C64.6056 42.2143 64.5081 43.0606 64.4106 43.5162H53.1663C53.5888 46.5106 55.5387 48.0404 58.236 48.0404C59.6984 48.0404 60.9983 47.5847 62.3307 46.771L63.9231 49.7328C62.1357 50.9697 59.8609 51.7183 57.6185 51.7183ZM53.1013 40.3266H60.5433C60.5433 37.8529 59.4384 36.2906 57.0986 36.2906C55.1812 36.2906 53.4913 37.6576 53.1013 40.3266Z" fill="white"/>
<path d="M113.026 116C108.476 116 105.551 112.452 105.551 106.464C105.551 100.507 109.288 96.8945 113.188 96.8945C115.236 96.8945 116.503 97.6431 117.835 98.8473L117.64 95.9832V89.6038H122.418V115.544H118.518L118.16 113.657H118.063C116.73 114.991 114.911 116 113.026 116ZM114.228 112.062C115.528 112.062 116.6 111.541 117.64 110.206V102.2C116.568 101.191 115.398 100.8 114.261 100.8C112.213 100.8 110.458 102.753 110.458 106.398C110.458 110.206 111.856 112.062 114.228 112.062Z" fill="white"/>
<path d="M93.8853 116C89.3031 116 85.1434 112.485 85.1434 106.464C85.1434 100.41 89.3031 96.8945 93.8853 96.8945C98.435 96.8945 102.595 100.41 102.595 106.464C102.595 112.485 98.435 116 93.8853 116ZM93.8853 112.127C96.3551 112.127 97.72 109.881 97.72 106.464C97.72 103.013 96.3551 100.8 93.8853 100.8C91.383 100.8 90.018 103.013 90.018 106.464C90.018 109.881 91.383 112.127 93.8853 112.127Z" fill="white"/>
<path d="M73.5424 116C68.9603 116 64.8005 112.485 64.8005 106.464C64.8005 100.41 68.9603 96.8945 73.5424 96.8945C78.0921 96.8945 82.2518 100.41 82.2518 106.464C82.2518 112.485 78.0921 116 73.5424 116ZM73.5424 112.127C76.0123 112.127 77.3772 109.881 77.3772 106.464C77.3772 103.013 76.0123 100.8 73.5424 100.8C71.0401 100.8 69.6752 103.013 69.6752 106.464C69.6752 109.881 71.0401 112.127 73.5424 112.127Z" fill="white"/>
<path d="M220.366 115.544V97.3502H224.233L224.623 100.572H224.721C226.02 98.1639 228.003 96.8945 229.888 96.8945C230.863 96.8945 231.448 97.0247 232 97.2851L231.188 101.386C230.538 101.223 230.05 101.093 229.27 101.093C227.873 101.093 226.15 102.07 225.143 104.706V115.544H220.366Z" fill="white"/>
<path d="M207.627 116C203.045 116 198.886 112.485 198.886 106.464C198.886 100.41 203.045 96.8945 207.627 96.8945C212.177 96.8945 216.337 100.41 216.337 106.464C216.337 112.485 212.177 116 207.627 116ZM207.627 112.127C210.097 112.127 211.462 109.881 211.462 106.464C211.462 103.013 210.097 100.8 207.627 100.8C205.125 100.8 203.76 103.013 203.76 106.464C203.76 109.881 205.125 112.127 207.627 112.127Z" fill="white"/>
<path d="M187.285 116C182.702 116 178.543 112.485 178.543 106.464C178.543 100.41 182.702 96.8945 187.285 96.8945C191.834 96.8945 195.994 100.41 195.994 106.464C195.994 112.485 191.834 116 187.285 116ZM187.285 112.127C189.754 112.127 191.119 109.881 191.119 106.464C191.119 103.013 189.754 100.8 187.285 100.8C184.782 100.8 183.417 103.013 183.417 106.464C183.417 109.881 184.782 112.127 187.285 112.127Z" fill="white"/>
</svg>
