<svg width="58" height="23" viewBox="0 0 58 23" fill="none" xmlns="http://www.w3.org/2000/svg">
<path d="M1.992 22.388C1.496 22.388 1.148 22.264 0.948 22.016C0.756 21.776 0.66 21.424 0.66 20.96C0.66 20.504 0.756 19.58 0.948 18.188C1.148 16.796 1.34 15.608 1.524 14.624L0.852 13.664C1.348 13.376 1.776 13.16 2.136 13.016C2.496 12.864 2.852 12.788 3.204 12.788C3.78 12.788 4.068 13.168 4.068 13.928C4.068 14.032 4.052 14.244 4.02 14.564L4.14 14.624C4.372 14.048 4.708 13.6 5.148 13.28C5.588 12.952 6.104 12.788 6.696 12.788C7.296 12.788 7.772 13.06 8.124 13.604C8.476 14.14 8.652 14.808 8.652 15.608C8.652 16.68 8.276 17.656 7.524 18.536C7.156 18.968 6.664 19.32 6.048 19.592C5.432 19.856 4.744 19.988 3.984 19.988C3.752 19.988 3.448 19.968 3.072 19.928C3.048 20.208 3.036 20.468 3.036 20.708C3.036 21.22 3.16 21.584 3.408 21.8C2.96 22.192 2.488 22.388 1.992 22.388ZM3.564 17.42L3.288 18.812C4.256 18.788 5.028 18.472 5.604 17.864C6.188 17.248 6.48 16.576 6.48 15.848C6.48 15.472 6.404 15.172 6.252 14.948C6.108 14.716 5.896 14.6 5.616 14.6C4.624 14.6 3.94 15.54 3.564 17.42ZM9.8475 18.812C9.8475 18.492 9.9275 17.872 10.0875 16.952C10.2555 16.032 10.4275 15.192 10.6035 14.432L9.9795 13.472C10.9795 13.024 11.6795 12.8 12.0795 12.8C12.4875 12.8 12.6915 13.056 12.6915 13.568C12.6915 13.848 12.5595 14.432 12.2955 15.32L12.4155 15.38C12.9915 13.66 13.7075 12.8 14.5635 12.8C14.9555 12.8 15.2555 12.92 15.4635 13.16C15.6715 13.4 15.7755 13.668 15.7755 13.964C15.7755 14.404 15.6115 14.78 15.2835 15.092C14.9555 15.404 14.4635 15.56 13.8075 15.56C12.8155 15.56 12.3195 16.58 12.3195 18.62C12.3195 19.116 12.4035 19.48 12.5715 19.712C12.0755 20.104 11.6195 20.3 11.2035 20.3C10.2995 20.3 9.8475 19.804 9.8475 18.812ZM20.0751 10.904C20.0751 11.208 19.9151 11.472 19.5951 11.696C19.2751 11.912 18.9111 12.02 18.5031 12.02C18.0951 12.02 17.7711 11.94 17.5311 11.78C17.2991 11.62 17.1831 11.404 17.1831 11.132C17.1831 10.764 17.3551 10.476 17.6991 10.268C18.0431 10.06 18.4071 9.956 18.7911 9.956C19.1751 9.956 19.4831 10.036 19.7151 10.196C19.9551 10.356 20.0751 10.592 20.0751 10.904ZM17.7351 20.3C17.2391 20.3 16.8791 20.176 16.6551 19.928C16.4311 19.68 16.3191 19.304 16.3191 18.8C16.3191 18.288 16.5751 16.924 17.0871 14.708L16.4151 13.7C17.4151 13.1 18.2031 12.8 18.7791 12.8C19.1071 12.8 19.3391 12.872 19.4751 13.016C19.6111 13.152 19.6791 13.376 19.6791 13.688C19.6791 13.808 19.5311 14.512 19.2351 15.8C18.9391 17.088 18.7911 18.008 18.7911 18.56C18.7911 19.112 18.9151 19.496 19.1631 19.712C18.7151 20.104 18.2391 20.3 17.7351 20.3ZM28.5074 14.936L28.6274 14.996C29.4834 13.532 30.5314 12.8 31.7714 12.8C32.7394 12.8 33.2234 13.284 33.2234 14.252C33.2234 14.668 33.1034 15.372 32.8634 16.364C32.6314 17.356 32.5154 18.104 32.5154 18.608C32.5154 19.112 32.5994 19.48 32.7674 19.712C32.3434 20.104 31.8954 20.3 31.4234 20.3C30.5034 20.3 30.0434 19.804 30.0434 18.812C30.0434 18.444 30.1634 17.82 30.4034 16.94C30.6434 16.06 30.7634 15.488 30.7634 15.224C30.7634 14.864 30.6274 14.684 30.3554 14.684C30.1314 14.684 29.8794 14.784 29.5994 14.984C29.3274 15.176 29.0634 15.44 28.8074 15.776C28.5594 16.104 28.3474 16.524 28.1714 17.036C28.0034 17.54 27.9194 18.056 27.9194 18.584C27.9194 19.104 28.0034 19.48 28.1714 19.712C27.7474 20.104 27.2994 20.3 26.8274 20.3C25.9074 20.3 25.4474 19.804 25.4474 18.812C25.4474 18.444 25.5674 17.82 25.8074 16.94C26.0474 16.06 26.1674 15.488 26.1674 15.224C26.1674 14.864 26.0314 14.684 25.7594 14.684C25.5354 14.684 25.2834 14.784 25.0034 14.984C24.7314 15.176 24.4674 15.44 24.2114 15.776C23.9634 16.104 23.7514 16.524 23.5754 17.036C23.4074 17.54 23.3234 18.056 23.3234 18.584C23.3234 19.104 23.4074 19.48 23.5754 19.712C23.1514 20.104 22.7034 20.3 22.2314 20.3C21.3114 20.3 20.8514 19.804 20.8514 18.812C20.8514 18.492 20.9314 17.872 21.0914 16.952C21.2594 16.032 21.4314 15.192 21.6074 14.432L20.9834 13.472C21.7754 13.024 22.5074 12.8 23.1794 12.8C23.8514 12.8 24.1874 13.104 24.1874 13.712C24.1874 14.112 24.0954 14.52 23.9114 14.936L24.0314 14.996C24.8874 13.532 25.9354 12.8 27.1754 12.8C27.6234 12.8 27.9754 12.912 28.2314 13.136C28.4954 13.36 28.6274 13.696 28.6274 14.144C28.6274 14.384 28.5874 14.648 28.5074 14.936ZM37.7337 20.3C36.6377 20.3 35.7897 20.016 35.1897 19.448C34.5977 18.88 34.3017 18.112 34.3017 17.144C34.3017 15.856 34.7417 14.812 35.6217 14.012C36.5097 13.204 37.6217 12.8 38.9577 12.8C39.7017 12.8 40.2657 12.968 40.6497 13.304C41.0337 13.632 41.2257 14.068 41.2257 14.612C41.2257 15.356 40.8617 15.976 40.1337 16.472C39.4137 16.96 38.2977 17.208 36.7857 17.216C36.8097 17.728 36.9257 18.132 37.1337 18.428C37.3417 18.716 37.6017 18.86 37.9137 18.86C38.2257 18.86 38.4937 18.756 38.7177 18.548C38.9497 18.34 39.0657 18 39.0657 17.528C40.2337 17.528 40.8177 17.804 40.8177 18.356C40.8177 18.828 40.5297 19.272 39.9537 19.688C39.3777 20.096 38.6377 20.3 37.7337 20.3ZM38.7537 14.204C38.3457 14.204 37.9697 14.408 37.6257 14.816C37.2897 15.224 37.0457 15.704 36.8937 16.256C37.6937 16.192 38.2937 16.012 38.6937 15.716C39.1017 15.412 39.3057 15.092 39.3057 14.756C39.3057 14.596 39.2537 14.464 39.1497 14.36C39.0537 14.256 38.9217 14.204 38.7537 14.204Z" fill="white"/>
<path d="M38.8953 11.3997C38.5543 11.4618 38.2926 11.4092 38.1103 11.2418C37.9271 11.0691 37.8001 10.7887 37.7294 10.4004C37.6577 10.0069 37.6209 8.86705 37.6189 6.98088L37.0484 6.21471C37.5715 5.72369 38.0771 5.43373 38.565 5.34486C38.9691 5.27127 39.216 5.48109 39.3058 5.97431C39.3326 6.12122 39.3399 6.78667 39.3279 7.97066L39.6419 7.59634C40.2914 6.81667 40.575 6.20122 40.4928 5.74997C40.468 5.61355 40.4245 5.49407 40.3625 5.39153C40.7078 5.08469 41.0536 4.89974 41.3999 4.83666C41.9141 4.74301 42.219 4.95853 42.3145 5.48323C42.4216 6.0709 42.008 6.76152 41.0737 7.55511C41.8465 9.02984 42.5496 9.89924 43.1832 10.1633C43.0888 10.2998 42.9338 10.431 42.7182 10.557C42.5089 10.6873 42.315 10.7687 42.1366 10.8012C41.7798 10.8662 41.4771 10.8264 41.2285 10.682C40.9799 10.5375 40.7241 10.2344 40.4612 9.77276L39.771 8.57301L39.3303 8.92161C39.3353 9.36525 39.3487 9.64741 39.3707 9.76809C39.4634 10.277 39.6114 10.6431 39.8147 10.8663C39.5428 11.1598 39.2364 11.3376 38.8953 11.3997ZM44.9866 3.91505C45.0229 4.11443 44.9495 4.3067 44.7664 4.49184C44.5823 4.67174 44.3565 4.78606 44.0889 4.83479C43.8213 4.88353 43.5992 4.86977 43.4227 4.7935C43.2514 4.71627 43.1495 4.58846 43.117 4.41006C43.0731 4.1687 43.1515 3.95926 43.3522 3.78174C43.553 3.60423 43.7793 3.49253 44.0312 3.44666C44.283 3.40079 44.4946 3.41647 44.6659 3.49369C44.8424 3.56996 44.9493 3.71041 44.9866 3.91505ZM44.5743 10.3572C44.249 10.4164 43.998 10.3781 43.8215 10.2422C43.6449 10.1063 43.5266 9.8731 43.4664 9.54254C43.4052 9.20673 43.4102 8.28153 43.4812 6.76695L42.9201 6.1861C43.5043 5.67311 43.9853 5.38222 44.3631 5.31341C44.5782 5.27423 44.739 5.29373 44.8454 5.37193C44.9508 5.44489 45.0222 5.58368 45.0594 5.78831C45.0738 5.86702 45.0608 6.34643 45.0205 7.22656C44.9802 8.10669 44.9931 8.72778 45.059 9.08982C45.125 9.45187 45.2522 9.68891 45.4406 9.80095C45.1936 10.1116 44.9048 10.297 44.5743 10.3572ZM50.9988 5.55222L51.0847 5.57724C51.4712 4.51478 52.0712 3.90948 52.8844 3.76135C53.5193 3.64572 53.8946 3.90534 54.0102 4.54023C54.0599 4.81307 54.0653 5.28915 54.0264 5.96845C53.9927 6.64679 54.006 7.15124 54.0662 7.48181C54.1264 7.81237 54.2255 8.0437 54.3634 8.17579C54.1321 8.48354 53.8617 8.66561 53.5521 8.722C52.9487 8.8319 52.5878 8.56154 52.4693 7.91091C52.4253 7.66954 52.4295 7.24594 52.4818 6.6401C52.534 6.03426 52.5444 5.64476 52.5129 5.47161C52.4699 5.2355 52.3592 5.13369 52.1808 5.16618C52.0339 5.19294 51.8805 5.28863 51.7208 5.45325C51.5653 5.61167 51.4237 5.81636 51.2959 6.06732C51.1725 6.31207 51.0836 6.61286 51.0293 6.9697C50.9793 7.32033 50.9859 7.6688 51.049 8.0151C51.1111 8.35615 51.2111 8.59273 51.349 8.72482C51.1177 9.03258 50.8473 9.21465 50.5377 9.27103C49.9343 9.38094 49.5734 9.11057 49.4549 8.45994C49.4109 8.21858 49.4151 7.79498 49.4674 7.18914C49.5196 6.58329 49.53 6.1938 49.4985 6.02065C49.4555 5.78453 49.3448 5.68272 49.1664 5.71521C49.0195 5.74197 48.8661 5.83766 48.7064 6.00229C48.5509 6.16071 48.4093 6.3654 48.2815 6.61635C48.158 6.86111 48.0692 7.1619 48.0149 7.51873C47.9649 7.86936 47.9715 8.21783 48.0345 8.56413C48.0967 8.90519 48.1967 9.14176 48.3346 9.27386C48.1033 9.58161 47.8329 9.76368 47.5233 9.82007C46.9199 9.92997 46.559 9.65961 46.4405 9.00898C46.4022 8.7991 46.3806 8.3829 46.3757 7.76038C46.376 7.1369 46.3884 6.56542 46.4131 6.04593L45.8891 5.49083C46.3551 5.10238 46.8084 4.86802 47.2491 4.78775C47.6899 4.70747 47.9466 4.86672 48.0192 5.26549C48.067 5.52784 48.0554 5.80643 47.9844 6.10125L48.0703 6.12627C48.4568 5.06381 49.0567 4.45852 49.87 4.31039C50.1639 4.25687 50.4081 4.28828 50.6028 4.40461C50.8027 4.51999 50.9294 4.7246 50.9829 5.01843C51.0116 5.17584 51.0169 5.35377 50.9988 5.55222Z" fill="white"/>
</svg>
