<svg width="44" height="10" viewBox="0 0 44 10" fill="none" xmlns="http://www.w3.org/2000/svg">
<path d="M0.48 9V0.18H1.776C2.268 0.18 2.678 0.288 3.006 0.504C3.338 0.72 3.586 1.026 3.75 1.422C3.914 1.818 3.996 2.284 3.996 2.82C3.996 3.356 3.91 3.818 3.738 4.206C3.566 4.594 3.314 4.898 2.982 5.118C2.654 5.334 2.252 5.452 1.776 5.472V9H0.48ZM1.776 4.152C2.004 4.152 2.184 4.108 2.316 4.02C2.448 3.928 2.542 3.784 2.598 3.588C2.658 3.392 2.688 3.14 2.688 2.832C2.688 2.52 2.658 2.266 2.598 2.07C2.542 1.874 2.446 1.73 2.31 1.638C2.178 1.546 2 1.5 1.776 1.5V4.152ZM4.51875 9V2.436H5.73075V3.168C5.75475 3.008 5.82875 2.866 5.95275 2.742C6.07675 2.618 6.22675 2.52 6.40275 2.448C6.58275 2.376 6.76275 2.34 6.94275 2.34V3.684C6.89075 3.664 6.83475 3.652 6.77475 3.648C6.71875 3.64 6.66275 3.636 6.60675 3.636C6.34275 3.636 6.13075 3.708 5.97075 3.852C5.81075 3.996 5.73075 4.192 5.73075 4.44V9H4.51875ZM7.42641 9V2.436H8.63841V9H7.42641ZM7.42641 1.392V0.18H8.63841V1.392H7.42641ZM9.3 9V2.436H10.512V2.988C10.708 2.808 10.886 2.656 11.046 2.532C11.21 2.404 11.368 2.34 11.52 2.34C11.736 2.34 11.91 2.414 12.042 2.562C12.174 2.71 12.272 2.88 12.336 3.072C12.508 2.896 12.686 2.73 12.87 2.574C13.058 2.418 13.248 2.34 13.44 2.34C13.64 2.34 13.808 2.404 13.944 2.532C14.08 2.66 14.182 2.822 14.25 3.018C14.318 3.214 14.352 3.416 14.352 3.624V9H13.212V3.864C13.212 3.736 13.18 3.646 13.116 3.594C13.056 3.542 12.98 3.516 12.888 3.516C12.796 3.516 12.708 3.552 12.624 3.624C12.54 3.692 12.476 3.76 12.432 3.828V9H11.292V3.864C11.292 3.736 11.26 3.646 11.196 3.594C11.136 3.542 11.06 3.516 10.968 3.516C10.876 3.516 10.788 3.552 10.704 3.624C10.62 3.692 10.556 3.76 10.512 3.828V9H9.3ZM16.4484 9.096C15.9644 9.096 15.5824 8.93 15.3024 8.598C15.0264 8.262 14.8884 7.852 14.8884 7.368V4.068C14.8884 3.556 15.0264 3.14 15.3024 2.82C15.5784 2.5 15.9644 2.34 16.4604 2.34C16.7844 2.34 17.0624 2.414 17.2944 2.562C17.5304 2.71 17.7104 2.912 17.8344 3.168C17.9584 3.42 18.0204 3.708 18.0204 4.032V5.94H16.0164V7.368C16.0164 7.532 16.0524 7.684 16.1244 7.824C16.2004 7.96 16.3124 8.028 16.4604 8.028C16.6164 8.028 16.7264 7.964 16.7904 7.836C16.8584 7.708 16.8924 7.552 16.8924 7.368V6.648H18.0204V7.404C18.0204 7.912 17.8824 8.322 17.6064 8.634C17.3344 8.942 16.9484 9.096 16.4484 9.096ZM16.0164 4.992H16.8924V4.068C16.8924 3.888 16.8604 3.732 16.7964 3.6C16.7364 3.464 16.6244 3.396 16.4604 3.396C16.3084 3.396 16.1964 3.466 16.1244 3.606C16.0524 3.742 16.0164 3.896 16.0164 4.068V4.992ZM21.4774 9L20.2894 0.18H21.4894L22.0054 4.764L22.0294 5.052H22.1254L22.1614 4.764L22.7134 0.18H23.6494L24.2014 4.764L24.2374 5.052H24.3334L24.3574 4.764L24.8734 0.18H26.0734L24.8854 9H23.8774L23.2774 4.824L23.2054 4.308H23.1574L23.0854 4.824L22.4854 9H21.4774ZM28.044 9.084C27.56 9.084 27.18 8.922 26.904 8.598C26.628 8.27 26.49 7.856 26.49 7.356V4.068C26.49 3.568 26.628 3.156 26.904 2.832C27.18 2.504 27.56 2.34 28.044 2.34C28.524 2.34 28.902 2.504 29.178 2.832C29.458 3.156 29.598 3.568 29.598 4.068V7.356C29.598 7.856 29.458 8.27 29.178 8.598C28.902 8.922 28.524 9.084 28.044 9.084ZM28.044 8.028C28.2 8.028 28.308 7.966 28.368 7.842C28.428 7.714 28.458 7.552 28.458 7.356V4.068C28.458 3.868 28.428 3.706 28.368 3.582C28.308 3.458 28.2 3.396 28.044 3.396C27.888 3.396 27.78 3.458 27.72 3.582C27.66 3.706 27.63 3.868 27.63 4.068V7.356C27.63 7.556 27.66 7.718 27.72 7.842C27.78 7.966 27.888 8.028 28.044 8.028ZM30.1359 9V2.436H31.3479V2.988C31.4919 2.848 31.6539 2.706 31.8339 2.562C32.0139 2.414 32.1799 2.34 32.3319 2.34C32.5319 2.34 32.6999 2.404 32.8359 2.532C32.9719 2.66 33.0739 2.822 33.1419 3.018C33.2099 3.214 33.2439 3.416 33.2439 3.624V9H32.0319V3.864C32.0319 3.736 32.0099 3.646 31.9659 3.594C31.9219 3.542 31.8479 3.516 31.7439 3.516C31.6559 3.516 31.5799 3.548 31.5159 3.612C31.4559 3.672 31.3999 3.744 31.3479 3.828V9H30.1359ZM34.7151 9.096C34.5151 9.096 34.3451 9.034 34.2051 8.91C34.0651 8.786 33.9591 8.626 33.8871 8.43C33.8151 8.23 33.7791 8.024 33.7791 7.812V3.624C33.7791 3.412 33.8131 3.208 33.8811 3.012C33.9531 2.816 34.0591 2.656 34.1991 2.532C34.3391 2.404 34.5111 2.34 34.7151 2.34C34.8671 2.34 35.0271 2.392 35.1951 2.496C35.3631 2.6 35.5231 2.724 35.6751 2.868V0.18H36.8871V9H35.6751V8.568C35.5151 8.708 35.3571 8.832 35.2011 8.94C35.0451 9.044 34.8831 9.096 34.7151 9.096ZM35.2911 7.956C35.3831 7.956 35.4691 7.918 35.5491 7.842C35.6331 7.766 35.6751 7.672 35.6751 7.56V3.876C35.6751 3.78 35.6331 3.69 35.5491 3.606C35.4691 3.522 35.3831 3.48 35.2911 3.48C35.2031 3.48 35.1311 3.518 35.0751 3.594C35.0191 3.666 34.9911 3.76 34.9911 3.876V7.56C34.9911 7.672 35.0191 7.766 35.0751 7.842C35.1311 7.918 35.2031 7.956 35.2911 7.956ZM39.1828 9.096C38.6988 9.096 38.3168 8.93 38.0368 8.598C37.7608 8.262 37.6228 7.852 37.6228 7.368V4.068C37.6228 3.556 37.7608 3.14 38.0368 2.82C38.3128 2.5 38.6988 2.34 39.1948 2.34C39.5188 2.34 39.7968 2.414 40.0288 2.562C40.2648 2.71 40.4448 2.912 40.5688 3.168C40.6928 3.42 40.7548 3.708 40.7548 4.032V5.94H38.7508V7.368C38.7508 7.532 38.7868 7.684 38.8588 7.824C38.9348 7.96 39.0468 8.028 39.1948 8.028C39.3508 8.028 39.4608 7.964 39.5248 7.836C39.5928 7.708 39.6268 7.552 39.6268 7.368V6.648H40.7548V7.404C40.7548 7.912 40.6168 8.322 40.3408 8.634C40.0688 8.942 39.6828 9.096 39.1828 9.096ZM38.7508 4.992H39.6268V4.068C39.6268 3.888 39.5948 3.732 39.5308 3.6C39.4708 3.464 39.3588 3.396 39.1948 3.396C39.0428 3.396 38.9308 3.466 38.8588 3.606C38.7868 3.742 38.7508 3.896 38.7508 4.068V4.992ZM41.2688 9V2.436H42.4808V3.168C42.5048 3.008 42.5788 2.866 42.7028 2.742C42.8268 2.618 42.9768 2.52 43.1528 2.448C43.3328 2.376 43.5128 2.34 43.6928 2.34V3.684C43.6408 3.664 43.5848 3.652 43.5248 3.648C43.4688 3.64 43.4128 3.636 43.3568 3.636C43.0928 3.636 42.8808 3.708 42.7208 3.852C42.5608 3.996 42.4808 4.192 42.4808 4.44V9H41.2688Z" fill="white"/>
</svg>
