<svg width="24" height="24" viewBox="0 0 24 24" fill="none" xmlns="http://www.w3.org/2000/svg">
<path d="M24 14.8599C24 17.0328 22.6243 18.8339 20.4097 19.5595L20.3102 19.5913V17.9891C21.6879 17.4086 22.4971 16.2616 22.4971 14.86C22.4899 12.86 20.8884 11.2312 18.8889 11.1901H18.2925L18.1493 10.6215C17.4468 7.72191 14.8607 5.67261 11.8772 5.65151C10.6602 5.64568 9.46694 5.98737 8.43755 6.63643C7.40816 7.2855 6.58546 8.21494 6.06616 9.31551L5.88336 9.69121L5.46586 9.73491C4.79194 9.807 4.14354 10.0327 3.57054 10.3947C2.99753 10.7567 2.51521 11.2453 2.16066 11.8229C0.880359 13.9085 1.53326 16.6372 3.61896 17.9176V19.6073H3.60896L3.45996 19.5398C2.58991 19.1398 1.82945 18.5354 1.2434 17.7781C0.657342 17.0208 0.263064 16.133 0.0941591 15.1904C-0.484541 11.9613 1.66416 8.87431 4.89326 8.29561C5.57057 7.03479 6.57861 5.98234 7.80908 5.25134C9.03956 4.52034 10.446 4.13842 11.8772 4.14661C15.3496 4.17161 18.4122 6.42661 19.4673 9.73491C22.0462 10.0715 23.9811 12.2593 24 14.8599ZM8.68236 13.5379H9.24706C9.25984 13.5377 9.27226 13.5337 9.2828 13.5264C9.29334 13.5192 9.30154 13.5091 9.30639 13.4972C9.31125 13.4854 9.31254 13.4724 9.31012 13.4599C9.3077 13.4473 9.30166 13.4358 9.29276 13.4266L7.08396 11.2159C7.07157 11.2037 7.05414 11.1963 7.03676 11.1964C7.01938 11.1965 7.00277 11.2035 6.99056 11.2159L4.77996 13.4266C4.77094 13.4359 4.76487 13.4477 4.76251 13.4604C4.76016 13.4731 4.76162 13.4863 4.76672 13.4982C4.77182 13.5101 4.78033 13.5202 4.79117 13.5273C4.80202 13.5343 4.81471 13.538 4.82766 13.5379H5.38426C5.39288 13.5379 5.40142 13.5396 5.40939 13.5429C5.41736 13.5462 5.42461 13.551 5.43071 13.5571C5.43681 13.5632 5.44165 13.5704 5.44496 13.5784C5.44826 13.5864 5.44996 13.5949 5.44996 13.6035V18.6609C5.44996 19.3197 5.98396 19.8537 6.64276 19.8537H9.24696C9.25974 19.8535 9.27216 19.8495 9.2827 19.8422C9.29324 19.835 9.30144 19.8249 9.30629 19.813C9.31115 19.8012 9.31244 19.7882 9.31002 19.7757C9.3076 19.7631 9.30156 19.7516 9.29266 19.7424L8.96266 19.4124C8.74055 19.1896 8.61547 18.888 8.61466 18.5734V13.6034C8.61521 13.5859 8.62257 13.5692 8.63519 13.557C8.6478 13.5447 8.66479 13.5379 8.68236 13.5379ZM18.4514 16.0845H19.0181C19.0313 16.0847 19.0442 16.0809 19.0552 16.0736C19.0663 16.0663 19.0748 16.0558 19.0797 16.0435C19.0847 16.0313 19.0858 16.0178 19.0829 16.0049C19.0801 15.992 19.0734 15.9802 19.0638 15.9712L16.8531 13.7625L16.8516 13.761C16.8394 13.7493 16.8232 13.7429 16.8063 13.7432C16.7894 13.7434 16.7734 13.7504 16.7617 13.7625L14.551 15.9711C14.5414 15.9802 14.5348 15.9919 14.532 16.0048C14.5292 16.0177 14.5304 16.0311 14.5353 16.0433C14.5402 16.0555 14.5487 16.066 14.5597 16.0733C14.5706 16.0806 14.5835 16.0845 14.5967 16.0844H15.1534C15.1708 16.0844 15.1874 16.0913 15.1997 16.1036C15.212 16.1159 15.219 16.1326 15.219 16.15V18.6608C15.219 19.3196 15.753 19.8536 16.4118 19.8536H19.0181C19.0309 19.8534 19.0433 19.8494 19.0539 19.8422C19.0645 19.835 19.0727 19.8248 19.0775 19.813C19.0824 19.8012 19.0837 19.7882 19.0812 19.7756C19.0788 19.763 19.0727 19.7515 19.0638 19.7423L18.7338 19.4123C18.5117 19.1895 18.3866 18.8879 18.3858 18.5733V16.1501C18.3858 16.1415 18.3875 16.133 18.3908 16.125C18.3941 16.117 18.3989 16.1098 18.405 16.1037C18.4111 16.0976 18.4184 16.0928 18.4263 16.0895C18.4343 16.0862 18.4427 16.0845 18.4514 16.0845ZM13.567 14.8102H14.1316C14.1445 14.8104 14.1572 14.8067 14.1681 14.7996C14.179 14.7925 14.1875 14.7824 14.1926 14.7704C14.1977 14.7585 14.1992 14.7454 14.1968 14.7326C14.1944 14.7199 14.1883 14.7081 14.1793 14.6988L11.9686 12.4961C11.9624 12.4901 11.9546 12.4847 11.9466 12.4814C11.9386 12.4782 11.9301 12.4765 11.9214 12.4766C11.9128 12.4766 11.9043 12.4784 11.8964 12.4817C11.8884 12.4851 11.8812 12.49 11.8752 12.4961L9.66646 14.7029C9.65755 14.7121 9.65152 14.7236 9.6491 14.7362C9.64668 14.7487 9.64797 14.7617 9.65282 14.7735C9.65768 14.7854 9.66588 14.7955 9.67642 14.8027C9.68696 14.81 9.69938 14.814 9.71216 14.8142H10.2748C10.2924 14.8147 10.3091 14.822 10.3213 14.8347C10.3336 14.8473 10.3405 14.8642 10.3405 14.8818V18.6609C10.3405 19.3197 10.8745 19.8537 11.5333 19.8537H14.1316C14.1445 19.8538 14.1572 19.8501 14.168 19.8431C14.1789 19.836 14.1874 19.8259 14.1925 19.814C14.1976 19.8021 14.1991 19.7889 14.1967 19.7762C14.1943 19.7635 14.1883 19.7517 14.1793 19.7424L13.8473 19.4124C13.6259 19.1892 13.5016 18.8877 13.5013 18.5734V14.8778C13.5013 14.8412 13.5304 14.8113 13.567 14.8102Z" fill="#3448C5"/>
</svg>
