<svg width="24" height="24" viewBox="0 0 24 24" fill="none" xmlns="http://www.w3.org/2000/svg">
<path d="M19.4549 8.369C18.9169 7.621 17.6769 6.084 15.7739 3.8C14.9479 2.809 14.2389 1.968 13.8899 1.555C13.7278 1.36258 13.5651 1.17058 13.4019 0.979L13.1949 0.734L13.0819 0.601L13.0599 0.569L13.0499 0.564L12.5699 0L11.9609 0.488C10.4059 1.734 9.13295 3.339 8.27995 5.128C7.75695 6.192 7.41595 7.233 7.23695 8.304C7.18995 8.545 7.14895 8.793 7.11595 9.042C6.90695 9.025 6.69495 9.014 6.48395 9.009C6.46595 9.008 6.44895 9.007 6.42495 9.006C5.65536 8.97911 4.88625 9.07154 4.14495 9.28L3.82795 9.369L3.66495 9.655C2.89995 10.997 2.46695 12.524 2.41295 14.071C2.34295 16.081 2.88995 18.025 3.99595 19.696C5.07795 21.329 6.60595 22.578 8.41595 23.307L8.65195 23.402L8.72295 23.427L8.72595 23.426C9.67048 23.7682 10.6629 23.9599 11.6669 23.994C11.7809 23.998 11.8949 24 12.0089 24C13.2819 24 14.5219 23.751 15.6989 23.258L15.7069 23.262L16.0199 23.117C17.6075 22.3826 18.9651 21.2297 19.9469 19.782C20.9569 18.292 21.5239 16.548 21.5879 14.74C21.6629 12.579 20.9449 10.436 19.4549 8.369ZM12.3719 15.064C12.6999 16.308 12.6359 17.504 12.1809 18.622C11.0459 17.502 10.2139 16.27 9.70595 14.957C9.16295 13.553 8.83595 12.217 8.73195 10.982C9.21195 11.139 9.65395 11.348 10.0469 11.604C11.1789 12.341 11.9609 13.505 12.3719 15.064ZM12.5789 21.086C13.0609 21.454 13.5689 21.798 14.0919 22.114C13.3209 22.324 12.5269 22.416 11.7229 22.387C11.5985 22.3826 11.4741 22.3752 11.3499 22.365C11.8079 21.971 12.2189 21.542 12.5779 21.086H12.5789ZM13.9259 14.655C13.4099 12.698 12.3989 11.218 10.9239 10.257C10.2769 9.836 9.53895 9.516 8.72995 9.307C8.74095 9.173 8.75595 9.039 8.77295 8.907C8.78695 8.794 8.80295 8.691 8.81895 8.594C8.95195 7.905 9.15095 7.224 9.40795 6.569C9.50695 6.319 9.61395 6.07 9.72895 5.829L9.73295 5.821C9.90995 5.463 10.1089 5.102 10.3429 4.716L10.4349 4.564L10.4319 4.563C10.9759 3.712 11.6289 2.936 12.3739 2.252L12.6619 2.593C13.3339 3.389 13.9659 4.141 14.5399 4.83C15.8309 6.379 17.5059 8.413 18.1519 9.31C19.4289 11.081 20.0449 12.889 19.9819 14.685C19.9329 16.08 19.5209 17.44 18.7869 18.618C18.0929 19.734 17.1259 20.668 15.9869 21.326C15.3509 21.008 14.4279 20.487 13.4479 19.727C14.2379 18.152 14.3999 16.447 13.9269 14.655H13.9259ZM11.3509 20.052C10.6259 20.991 9.76395 21.602 9.26095 21.908C9.17995 21.879 9.09795 21.848 9.01795 21.815L8.95295 21.789C7.46295 21.173 6.20595 20.133 5.31795 18.779C4.41095 17.395 3.96195 15.786 4.01995 14.126C4.06095 12.936 4.35795 11.799 4.90195 10.747C5.21795 10.677 5.53995 10.633 5.86195 10.616L5.94595 10.614C6.10795 10.611 6.26995 10.611 6.42395 10.614C6.65095 10.625 6.87795 10.649 7.10095 10.684C7.17395 12.197 7.54595 13.829 8.20595 15.536C8.84295 17.18 9.89995 18.698 11.3499 20.051L11.3509 20.052Z" fill="#DD2C00"/>
</svg>
