<svg width="24" height="24" viewBox="0 0 24 24" fill="none" xmlns="http://www.w3.org/2000/svg">
<g clip-path="url(#clip0_102_70)">
<path d="M13.0561 23.2381C12.9829 23.3322 12.8821 23.401 12.7677 23.4348C12.6534 23.4686 12.5313 23.4657 12.4187 23.4265C12.3061 23.3874 12.2086 23.3138 12.14 23.2163C12.0714 23.1188 12.035 23.0023 12.0361 22.883V17.681C12.0361 17.051 11.5241 16.538 10.8921 16.538H5.14811C5.04309 16.5383 4.94004 16.5095 4.85033 16.4549C4.76062 16.4003 4.68774 16.322 4.63974 16.2286C4.59174 16.1351 4.57048 16.0303 4.57831 15.9256C4.58614 15.8208 4.62276 15.7203 4.68411 15.635L8.46111 10.345C9.00111 9.59205 8.46111 8.54105 7.53111 8.54105H0.570114C0.480399 8.54033 0.392103 8.51859 0.31231 8.47757C0.232518 8.43655 0.163451 8.3774 0.110653 8.30486C0.0578541 8.23233 0.0227944 8.14842 0.00828667 8.05989C-0.00622102 7.97135 0.000227368 7.88064 0.0271144 7.79505C0.0459092 7.73906 0.0728665 7.68616 0.107114 7.63805L5.00811 0.780049C5.06102 0.705541 5.13106 0.644844 5.21233 0.603075C5.29361 0.561306 5.38374 0.53969 5.47511 0.540049H20.0641C20.1693 0.539423 20.2726 0.56792 20.3626 0.622385C20.4526 0.67685 20.5258 0.755159 20.574 0.848641C20.6223 0.942124 20.6437 1.04713 20.636 1.15204C20.6282 1.25695 20.5916 1.35767 20.5301 1.44305L16.7521 6.73305C16.2121 7.48805 16.7521 8.53905 17.6821 8.53905H23.4271C23.6651 8.53905 23.8511 8.67705 23.9401 8.86105C23.9886 8.957 24.0084 9.06489 23.9973 9.17181C23.9861 9.27874 23.9444 9.38019 23.8771 9.46405L13.0561 23.2381Z" fill="#9135FF"/>
</g>
<defs>
<clipPath id="clip0_102_70">
<rect width="24" height="24" fill="white"/>
</clipPath>
</defs>
</svg>
