<svg width="363" height="110" viewBox="0 0 363 110" fill="none" xmlns="http://www.w3.org/2000/svg">
<path d="M363 50H300.5V61H352L363 50Z" fill="#FDFDFD"/>
<path d="M363 99H300.5V110H352L363 99Z" fill="#FDFDFD"/>
<path d="M358.5 75H301V86H347.5L358.5 75Z" fill="#FDFDFD"/>
<path d="M12 61.5L0 49.5H51.5C63.098 49.5 72.5 58.902 72.5 70.5C72.5 82.098 63.098 91.5 51.5 91.5H18.5V110H4.5V79.5H50C54.4183 79.5 58 75.9183 58 71.5V69.5C58 65.0817 54.4183 61.5 50 61.5H12Z" fill="#FDFDFD"/>
<path d="M133.5 49.5C145.098 49.5 154.5 58.902 154.5 70.5C154.5 80.4041 147.643 88.704 138.418 90.918L157.5 110H140L121.5 91.5H100.5V110H86.5V79.5H132C136.418 79.5 140 75.9183 140 71.5V69.5C140 65.0817 136.418 61.5 132 61.5H94L82 49.5H133.5Z" fill="#FDFDFD"/>
<path d="M173 50H188V110H173V50Z" fill="#FDFDFD"/>
<path d="M245 79L221 50H206V110H221V72L243 96.5H247L269 71.5V110H283V50H269L245 79Z" fill="#FDFDFD"/>
<path d="M173.5 24.5L147 37.5L180 0V15L173.5 24.5Z" fill="url(#paint0_linear_4002_49)"/>
<path d="M189.5 24.5L216 37.5L183 0V15L189.5 24.5Z" fill="url(#paint1_linear_4002_49)"/>
<defs>
<linearGradient id="paint0_linear_4002_49" x1="180" y1="1.10269e-06" x2="147.5" y2="37" gradientUnits="userSpaceOnUse">
<stop stop-color="#FFD30F"/>
<stop offset="1" stop-color="#674805"/>
</linearGradient>
<linearGradient id="paint1_linear_4002_49" x1="183" y1="2.52247e-06" x2="156.5" y2="38" gradientUnits="userSpaceOnUse">
<stop stop-color="#FFD30F"/>
<stop offset="1" stop-color="#674805"/>
</linearGradient>
</defs>
</svg>
